# xmcd
#
# Track frame offsets: 
#        150
#        26095
#        46858
#        65890
#        93223
#        123420
#        152030
#        173550
#        198230
#        225673
#        241005
#
# Disc length: 3500 seconds
#
# Revision: 0
# Processed by: cddbd v1.5.2PL0 Copyright (c) Steve Scherf et al.
# Submitted via: ExactAudioCopy v1.3
#
DISCID=840daa0b
DTITLE=Billy Branch - The Blues Keep Following Me Around
DYEAR=1995
DGENRE=Harmonica Blues, Chicago Blues
TTITLE0=Bring It On Home
TTITLE1=Grown Men Cry
TTITLE2=Polk Salad Annie
TTITLE3=If Heartaches Were Nickles
TTITLE4=You
TTITLE5=The Blues Follow Me Around
TTITLE6=Flamin' Mamie
TTITLE7=Should Have Been Gone
TTITLE8=Should Have Known Better
TTITLE9=Evil
TTITLE10=Where's My Money
EXTD=
EXTT0=
EXTT1=
EXTT2=
EXTT3=
EXTT4=
EXTT5=
EXTT6=
EXTT7=
EXTT8=
EXTT9=
EXTT10=
PLAYORDER=
